<svg width="67" height="77" viewBox="0 0 67 77" fill="none" xmlns="http://www.w3.org/2000/svg">
<path d="M5.06694 69.7678L5.0289 69.8093L4.99666 69.8554L2.88741 72.8716L2.16124 73.91L3.3975 74.188L9.02216 75.4529L9.05688 75.4607L9.09213 75.4655L12.6075 75.952L13.0696 76.016L13.3717 75.6606L14.7778 74.0066L14.8468 73.9254L14.8936 73.8298L19.9577 63.4872L24.4829 57.3213L24.49 57.3116L24.4969 57.3016L33.8113 43.824L46.8241 62.9399L46.9826 63.1727L47.2488 63.2648L47.8648 63.478L47.7337 65.2193L47.7122 65.5047L47.8677 65.7449L51.9498 72.053V73.0668V73.3821L52.1555 73.6212L53.9132 75.6644L54.2303 76.033L54.7087 75.9465L63.3215 74.3898L64.1337 74.243L64.0108 73.4268L63.6593 71.0917L63.612 70.7772L63.3699 70.5711L61.1538 68.6838L54.881 60.4856L54.834 60.4241L54.7766 60.3721L52.9377 58.7064L47.9055 50.2539L47.879 50.2094L47.8472 50.1684L42.0919 42.7348L39.0212 36.9197L41.5397 33.0859L49.9523 22.2203L57.506 12.7881L57.6926 12.5552V12.2568V11.2514L58.2615 10.9815L58.4262 10.9034L58.5443 10.7647L64.3447 3.95394L65.2473 2.89418L63.8923 2.57541L56.8614 0.921367L56.7654 0.898779H56.6668H55.9637H55.9116L55.8599 0.905138L54.278 1.09973L53.7652 1.16281L53.5851 1.64706L52.3577 4.94728L52.3547 4.95513L51.1661 8.05659L45.2531 16.3357L45.2175 16.3854L45.1894 16.4398L43.1174 20.4542L38.4217 26.4229L38.4216 26.4229L38.4147 26.4318L34.6903 31.2972L28.8702 23.8091L26.6016 20.718L26.0833 19.9529L26.05 19.9038L26.0103 19.8599L25.5722 19.3748L23.6934 15.215L23.6522 15.1237L23.5909 15.0445L19.4302 9.6706L15.6033 1.48605L15.3548 0.954694L14.7699 0.998449L8.26639 1.48493L8.15486 1.49327L8.04928 1.53018L4.70962 2.69773L3.59358 3.0879L4.31887 4.02156L11.877 13.7512L12.0025 13.9127L12.1877 13.9995L13.4326 14.5826L13.3237 14.7032L12.8455 15.2325L13.2839 15.7953L21.5241 26.3736L23.6145 29.5557L23.6281 29.5764L23.6429 29.5963L26.1014 32.9012L26.1037 32.9044L29.0999 37.0071L22.9012 46.93L22.901 46.9303L19.987 51.5901H19.6988L19.4436 51.9079L14.5221 58.0375L14.5019 58.0627L14.4837 58.0892L10.6508 63.6826L5.06694 69.7678Z" fill="#D0A20C" stroke="#D0A20C" stroke-width="1.7"/>
<path fill-rule="evenodd" clip-rule="evenodd" d="M4.56849 70.0646L10.1913 63.937L14.0469 58.3103L19.3072 51.7589H19.5822L22.4594 47.158L28.8122 36.9885L25.6483 32.6563L25.6453 32.6522L23.1777 29.3351L21.072 26.1296L12.5983 15.2516L13.3007 14.4741L11.5327 13.646L3.44509 3.23477L7.89973 1.67741L15.7511 1.09011L19.8683 9.89545L24.0889 15.3466L26.0135 19.6081L26.5093 20.1569L27.0533 20.9599L29.3225 24.0522L29.3321 24.0651L34.6871 30.9545L37.9619 26.6764L42.6752 20.6855L44.7786 16.6103L50.7391 8.26492L51.9466 5.11402L51.9481 5.11004L53.3376 1.37409L55.829 1.06763H56.9177L65.3562 3.05282L58.8982 10.6357L58.0733 11.0271V12.4009L50.4157 21.9627L50.4096 21.9704L41.9922 32.8423L39.3295 36.8956L42.5351 42.9662L48.3274 50.4475L53.3969 58.9628L55.3037 60.6899L61.6248 68.9513L64.0195 70.9907L64.4776 74.0335L53.9119 75.9432L51.5698 73.2206V71.9202L47.3423 65.3876L47.5027 63.2562L46.5223 62.917L33.8082 44.2399L24.9426 57.0682L20.3959 63.2633L15.2899 73.6918L13.4071 75.9065L8.82633 75.2726L2 73.7375L4.56849 70.0646ZM19.2279 63.0452L23.798 56.8183L33.8169 42.3212L47.527 62.4615L48.9332 62.9479H48.7574L48.5816 65.2831L52.8002 71.8019V73.0667L54.5579 75.11L63.1706 73.5532L62.8191 71.2181L60.5341 69.2722L54.2063 61.002L52.2728 59.2507L47.1755 50.6886L41.3751 43.1968L38.0354 36.8726L40.8477 32.5916L49.2847 21.6944L56.8429 12.2567V10.7972H56.6671L57.8975 10.2135L63.698 3.40274L56.6671 1.7487H55.964L54.3821 1.9433L53.1517 5.25136L51.9213 8.46213L45.9451 16.8296L43.8358 20.916L39.09 26.9484L34.6958 32.6889L28.1922 24.3214L25.9072 21.2079L25.3799 20.4296L24.8526 19.8458L22.9191 15.5647L18.7006 10.1162L14.8336 1.846L8.33012 2.33248L4.99046 3.50003L12.5486 13.2296L14.8336 14.2999L13.9548 15.2729L22.216 25.8781L24.3253 29.0889L26.7861 32.397L30.1257 36.9699L20.4583 52.44H20.1068L15.1852 58.5696L11.3182 64.2128L5.69356 70.3425L3.58453 73.3583L9.20898 74.6235L12.7244 75.11L14.1306 73.4559L19.2279 63.0452Z" fill="#D0A20C"/>
</svg>
