<svg width="37" height="58" viewBox="0 0 37 58" fill="none" xmlns="http://www.w3.org/2000/svg">
<path d="M12.8172 20.9998L13.9891 19.9049L16.9365 17.3554L24.846 11.8558L25.0994 11.6797L25.2094 11.3914L25.5438 10.5152L29.481 9.11344L29.7551 9.01586L29.934 8.7865L32.1447 5.95311L32.9746 4.88937L31.7155 4.40472L25.6412 2.06674L25.4216 1.98224L25.1874 2.00448L22.2634 2.28208L21.9119 2.31546L21.6593 2.56216L18.9374 5.22016L17.6617 6.1891L17.6443 6.2023L17.6275 6.21624L14.8889 8.49136L11.6216 11.1227L8.52169 13.5192L1.44557 18.2333L1 18.5302V19.0655V23.514V24.16L1.5889 24.4256L5.02802 25.9765L5.03709 25.9806L5.04624 25.9845L7.75952 27.1437L14.4776 30.2178L19.7812 33.6331L19.906 33.7134L20.0487 33.7541L20.3558 33.8415L23.2919 35.7475L23.1593 35.9398L17.3735 41.1634L15.7062 42.4484L14.3744 42.9542L14.2434 43.0039L14.1312 43.0877L10.6883 45.6576L7.4613 47.8635L4.24387 49.4848L3.92271 49.6467L3.77819 49.976L2.87704 52.0293L2.45605 52.9886L3.43385 53.3646L10.1145 55.9334L10.4932 56.079L10.8663 55.9196L14.4965 54.3686L14.6862 54.2876L14.8283 54.1382L16.497 52.3836L16.5041 52.3761L16.511 52.3686L17.8825 50.8661L22.4106 47.343L22.4208 47.3351L22.4308 47.3269L25.2141 45.0438L29.372 42.1631L29.3924 42.1489L29.4121 42.1338L34.3239 38.3565L34.6809 38.0819L34.7119 37.6325L34.9976 33.4817L35.0454 32.7875L34.4111 32.5014L31.0923 31.0047L19.5791 24.3164L19.5007 24.2708L19.4154 24.2401L17.1993 23.4428L15.2265 22.5438L12.8172 20.9998Z" fill="#FFC400" stroke="#FFC400" stroke-width="2"/>
</svg>
