<svg width="51" height="56" viewBox="0 0 51 56" fill="none" xmlns="http://www.w3.org/2000/svg">
<path d="M2.18692 20.9622L2.18812 21.0154L2.20509 21.0659L2.95101 23.2836L2.57328 27.5651L2.28541 29.9899L2.28297 30.0104V30.0311V50.0102L1.42364 54.5521L1.34872 54.9481L1.7513 54.9668L3.28985 55.0383L3.29241 55.0384L5.11944 55.1099L5.16145 55.1115L5.20265 55.1031L7.31817 54.6743L7.55635 54.626L7.59434 54.386L7.78664 53.171L7.79829 53.0974L7.77892 53.0253L7.40045 51.6188L7.21401 50.1636V28.9591V28.9128L7.20198 28.8681L7.11458 28.5433L7.0208 27.219L7.02088 27.219L7.02018 27.2114L6.82785 25.1388L6.8279 25.1387L6.82725 25.1329L6.44615 21.6629L6.73224 17.8357L6.73283 17.8277L6.73306 17.8197L7.02052 7.84865L7.49342 5.81005L7.49932 5.7846L7.50138 5.75857L7.78985 2.11354L7.81563 1.78778L7.4924 1.73974L3.64602 1.16796L3.5846 1.15883L3.52379 1.17139L1.79293 1.52874L1.47028 1.59536L1.51728 1.92145L1.80273 3.90172L2.18692 20.9622Z" fill="black" stroke="black" stroke-width="0.7"/>
<path d="M2.97715 50.1079L2.98326 50.0757V50.0429V30.0517L3.26931 27.6422L3.26947 27.6422L3.2704 27.6317L3.65503 23.272L3.66146 23.199L3.63812 23.1296L2.88583 20.893L2.50237 3.86465L2.50189 3.84352L2.49888 3.8226L2.25742 2.1475L3.60481 1.86931L7.06654 2.38391L6.80592 5.67713L6.33102 7.72435L6.32312 7.75841L6.32211 7.79336L6.03388 17.7913L5.74598 21.6427L5.74357 21.6749L5.7471 21.707L6.1314 25.2062L6.32311 27.2721L6.41901 28.6263L6.42139 28.6599L6.43016 28.6925L6.5143 29.0052V50.1858V50.2081L6.51714 50.2303L6.70944 51.7312L6.71245 51.7547L6.71862 51.7776L7.08388 53.1351L6.94122 54.0364L5.10508 54.4086L3.32262 54.3389L3.32007 54.3388L2.18665 54.2861L2.97715 50.1079ZM8.4602 53.0048L8.06753 51.5457L7.8874 50.1396V28.9094V28.8631L7.87538 28.8184L7.78451 28.4807L7.69337 27.1926L7.69345 27.1926L7.69275 27.185L7.49971 25.1042L7.49975 25.1042L7.49921 25.0991L7.49853 25.0928L7.49844 25.092L7.12109 21.6563L7.40524 17.8547L7.40584 17.8467L7.40607 17.8387L7.69268 7.89664L8.16346 5.86725L8.16937 5.84181L8.17143 5.81577L8.49652 1.70817L8.5223 1.3824L8.19907 1.33436L3.62087 0.653804L3.55945 0.644674L3.49864 0.657229L1.06313 1.16007L0.74048 1.22668L0.787484 1.55277L1.13051 3.93252L1.51546 21.0277L1.51666 21.0809L1.53363 21.1314L2.27275 23.3288L1.90284 27.5234L1.90221 27.5294L1.6126 29.9676L1.61016 29.9882V30.0089V49.975L0.656101 55.0176L0.581181 55.4135L0.983755 55.4322L3.24815 55.5375L3.25071 55.5376L5.19245 55.6135L5.23446 55.6152L5.27566 55.6068L7.93387 55.068L8.17204 55.0197L8.21003 54.7797L8.46792 53.1505L8.47958 53.0769L8.4602 53.0048Z" fill="black" stroke="black" stroke-width="0.7"/>
<path d="M47.5 28L6 6.5V50.5L47.5 28Z" fill="black"/>
<path d="M17.1692 41.083L16.0637 42.5496L16.0436 42.43L15.9594 41.9272L15.5205 42.1864L11.7685 44.4016L6.38773 45.8819L6.13057 45.9526V46.2193L6.13057 51.4435V51.4804L6.13826 51.5165L6.83836 54.8003L6.95414 55.3434L7.39416 55.0046L13.9315 49.9722L18.2981 48.7962L18.3549 48.7809L18.4036 48.7479L23.1901 45.502L25.1663 45.0686L25.2542 45.0493L25.3219 44.9901L27.5075 43.0771L39.7096 36.6848L48.5059 32.9588L48.5786 32.928L48.6311 32.869L50.0896 31.2271L50.1801 31.1252L50.1779 30.9889L50.1195 27.4066H50.1196L50.1194 27.3999L50.0027 24.1161L49.9957 23.9201L49.8249 23.8237L45.8577 21.5848L45.8319 21.5702L45.804 21.5602L39.1849 19.1834L29.9377 13.678L29.8549 13.6287H29.7586H29.5253H29.4409L29.3659 13.6671L29.1124 13.7968L28.73 13.8858L27.234 11.972L27.1737 11.8948L27.082 11.8602L21.948 9.9198L21.948 9.91965L21.9384 9.91632L16.7809 8.13717L14.8329 6.96453L12.7366 5.62371L12.7367 5.62365L12.7309 5.6201L8.60432 3.09227L6.8687 1.76013L6.34893 1.36119L6.30634 2.01502L5.83961 9.17958L5.83398 9.26601L5.8693 9.34509L6.33603 10.3899L6.39534 10.5227L6.53128 10.5744L12.4237 12.8133L12.4838 12.8361H12.548H14.0649H14.2713L14.9122 14.2707L14.9753 14.4121L15.1225 14.4605L21.4721 16.5471L27.4757 18.9101L29.3565 20.514L29.3965 20.5481L29.4447 20.569L33.5758 22.3554L39.0464 25.1843L39.0491 25.1858L44.1988 27.9067L44.1733 28.1024L44.1526 28.208L42.9231 28.7322L42.8949 28.7443L42.8692 28.761L39.9172 30.6862L33.2335 33.6601L33.2063 33.6722L33.1815 33.6887L26.5148 38.1382L17.3458 40.9592L17.2374 40.9925L17.1692 41.083Z" fill="black" stroke="black" stroke-width="0.7"/>
</svg>
