<svg width="68" height="71" viewBox="0 0 68 71" fill="none" xmlns="http://www.w3.org/2000/svg">
<path d="M23.2463 52.1114L21.613 54.1945L21.5428 53.7914L21.4574 53.3018L21.0252 53.5471L16.0298 56.3826L8.87007 58.2762L8.60956 58.3451V58.6146V65.2829V65.3212L8.61786 65.3586L9.54736 69.5501L9.66404 70.0763L10.0973 69.7557L18.7954 63.3184L24.6164 61.8112L24.6718 61.7969L24.7198 61.7656L31.094 57.6099L33.7409 57.0518L33.8269 57.0337L33.8941 56.9772L36.8062 54.5268L53.0233 46.359L64.7066 41.6012L64.7788 41.5718L64.8316 41.5146L66.7681 39.4189L66.8634 39.3158L66.861 39.1754L66.7835 34.6029H66.7836L66.7833 34.5959L66.6284 30.4044L66.6211 30.2049L66.4456 30.1097L61.1784 27.2518L61.153 27.238L61.1257 27.2286L52.3266 24.191L40.0393 17.158L39.9585 17.1118H39.8654H39.5556H39.4742L39.4011 17.1477L39.0512 17.3198L38.4512 17.454L36.419 14.9547L36.3579 14.8796L36.2669 14.8466L29.4506 12.3698L29.4507 12.3697L29.4412 12.3665L22.5815 10.0915L19.9831 8.58775L17.1986 6.87541L17.1986 6.87535L17.1928 6.87196L11.7089 3.64232L9.39975 1.93839L8.88591 1.55923L8.84273 2.19636L8.22307 11.3414L8.21699 11.4311L8.25485 11.5125L8.87452 12.8462L8.93563 12.9777L9.07184 13.0275L16.8951 15.8853L16.9533 15.9066H17.0152H19.0291H19.2375L19.3149 15.7638L20.2609 17.7998L20.3259 17.9396L20.4729 17.986L28.9065 20.6504L36.8994 23.675L39.4111 25.7344L39.451 25.7671L39.4987 25.7869L44.9873 28.0686L52.2551 31.6819L52.2578 31.6833L59.1596 35.1892L59.1171 35.503L59.0791 35.6895L57.3931 36.3807L57.3654 36.392L57.34 36.408L53.4127 38.8703L44.5302 42.67L44.5033 42.6815L44.4788 42.6972L35.613 48.386L23.4224 51.9917L23.3153 52.0234L23.2463 52.1114Z" fill="#D0A20C" stroke="#D0A20C" stroke-width="0.7"/>
<path d="M3.37362 26.3738L3.37491 26.429L3.39316 26.4811L4.38938 29.3286L3.88616 34.8123L3.5038 37.9086L3.50116 37.9299V37.9515V63.4611L2.35874 69.2662L2.2802 69.6653L2.68653 69.6834L4.72925 69.7747L4.73171 69.7748L7.15742 69.866L7.19783 69.8675L7.23752 69.8598L10.0463 69.3124L10.2851 69.2659L10.3247 69.0257L10.58 67.4749L10.5926 67.3984L10.5717 67.3237L10.0676 65.5228L9.81864 63.6545V36.5831V36.535L9.80568 36.4887L9.68744 36.0663L9.56234 34.3679L9.56243 34.3679L9.56166 34.36L9.30631 31.7144L9.30636 31.7144L9.30567 31.7083L8.79881 27.2715L9.17924 22.3787L9.17988 22.3704L9.18013 22.362L9.56204 9.62646L10.1919 7.01616L10.1982 6.98981L10.2004 6.96278L10.5834 2.31017L10.6105 1.98162L10.2841 1.93498L5.17737 1.20516L5.11827 1.19671L5.05971 1.20833L2.76168 1.66447L2.43419 1.72948L2.48369 2.05967L2.86343 4.59231L3.37362 26.3738Z" fill="#D0A20C" stroke="#D0A20C" stroke-width="0.7"/>
<path d="M4.19545 63.5627L4.20204 63.5293V63.4952V37.9729L4.58243 34.8926L4.5826 34.8926L4.5836 34.8817L5.09427 29.3168L5.10122 29.241L5.0761 29.1692L4.07301 26.3021L3.5636 4.55389L3.56308 4.53192L3.55982 4.51019L3.22634 2.28601L5.13831 1.9065L9.85963 2.58124L9.50591 6.87827L8.87392 9.49752L8.8654 9.53282L8.86431 9.56912L8.48157 22.3327L8.09919 27.2506L8.09658 27.2841L8.1004 27.3175L8.61072 31.7846L8.61106 31.7877L8.8654 34.4232L8.99278 36.1526L8.99535 36.1875L9.00479 36.2212L9.11951 36.6311V63.6776V63.7008L9.12258 63.7239L9.37789 65.6396L9.38114 65.664L9.38778 65.6877L9.87755 67.4376L9.67436 68.6718L7.1442 69.1649L4.76135 69.0753L4.75889 69.0752L3.12498 69.0022L4.19545 63.5627ZM11.485 67.4489L11.4976 67.3724L11.4767 67.2977L10.9538 65.4296L10.7132 63.624V36.5198V36.4717L10.7002 36.4255L10.5774 35.9865L10.4558 34.3343L10.4559 34.3343L10.4551 34.3264L10.1988 31.6704L10.1989 31.6704L10.1983 31.6651L10.1974 31.6571L10.1973 31.6562L9.69541 27.2632L10.0733 22.4032L10.0739 22.3949L10.0742 22.3865L10.4549 9.68788L11.082 7.08934L11.0883 7.06298L11.0905 7.03596L11.5222 1.7929L11.5492 1.46434L11.2229 1.4177L5.14446 0.549028L5.08536 0.540582L5.02681 0.552205L1.79323 1.19404L1.46574 1.25904L1.51524 1.58924L1.97142 4.63179L2.48263 26.4576L2.48392 26.5128L2.50217 26.565L3.48934 29.3866L2.99688 34.7558L2.9963 34.7616L2.99592 34.765L2.99532 34.7701L2.61102 37.8804L2.60838 37.9018V37.9233V63.4163L1.34018 69.8605L1.26164 70.2596L1.66798 70.2777L4.67436 70.412L4.67683 70.4121L7.25484 70.5091L7.29525 70.5106L7.33494 70.5028L10.8642 69.8151L11.1031 69.7685L11.1426 69.5284L11.485 67.4489Z" fill="#D0A20C" stroke="#D0A20C" stroke-width="0.7"/>
</svg>
