<svg width="41" height="64" viewBox="0 0 41 64" fill="none" xmlns="http://www.w3.org/2000/svg">
<path d="M18.3129 1.46338L18.0194 1.48987L17.9004 1.75951L16.6015 4.70337L16.6015 4.70337L16.6001 4.70649L15.4033 7.46961L10.7756 15.8827L10.7629 15.9059L10.7527 15.9302L9.26076 19.484L8.95492 19.4465L8.62806 19.4065L8.46218 19.6909L5.58769 24.6209L2.62048 29.5509L2.57637 29.6242L2.55913 29.7079L2.28077 31.0605L2.2446 31.2363L2.32843 31.3949L7.7098 41.5791L7.71408 41.5872L7.71865 41.5951L11.6064 48.3423L16.5123 58.5025L17.5295 60.8022L17.5456 60.8385L17.5671 60.8718L18.0311 61.5879L18.1978 61.8453L18.5029 61.8133L23.0492 61.3359L23.3317 61.3063L23.4509 61.0484L27.5333 52.2169L27.5539 52.1722L27.5655 52.1243L28.1004 49.9071L31.6663 44.7322L31.6847 44.7055L31.6995 44.6766L35.398 37.4612L38.4443 32.8699L38.5115 32.7686L38.5247 32.6478L38.8031 30.1018L38.8224 29.9245L38.7253 29.7749L35.5823 24.9394L31.9738 18.1952L31.917 18.089L31.8181 18.0204L30.0959 16.8249L30.1768 14.9518L30.1826 14.8176L30.1203 14.6985L23.2545 1.5705L23.1398 1.35124L22.8959 1.30942L21.9681 1.15029L21.9037 1.13925L21.8386 1.14512L18.3129 1.46338ZM14.9982 44.7762L14.9682 44.718L14.9242 44.6695L13.1206 42.681L13.1967 41.7025L13.2074 41.5645L13.1457 41.4406L7.49426 30.1066L9.25313 25.808L15.7339 14.0579L15.7766 13.9805L15.7901 13.8932L15.9517 12.8541L17.8853 10.8191L17.9362 10.7655L17.9694 10.6996L19.6142 7.43324L20.268 6.96603L21.1693 8.57126L21.1876 8.60384L21.2105 8.63335L22.1145 9.79616L29.1412 22.4817L33.1254 30.5863L33.1333 30.6022L33.1422 30.6175L33.8673 31.8611L33.4195 33.3332L33.4029 33.3294L29.4191 41.5125L26.7482 46.3303L23.331 51.1614L23.3155 51.1833L23.3024 51.2068L20.7666 55.7599L19.6328 53.7582L14.9982 44.7762ZM19.7627 27.1912L19.5819 27.2576L19.4924 27.4282L18.6879 28.9614L17.3406 30.4248L17.1919 30.5863L17.2101 30.805L17.3029 31.9189L17.3143 32.0557L17.394 32.1676L18.4146 33.5997L18.4346 33.6277L18.4582 33.6528L20.0355 35.3236L20.2566 35.5578L20.5613 35.4533L21.0252 35.2942L21.172 35.2438L21.2645 35.1192L22.5352 33.4069L23.7992 32.2456L23.9783 32.0811L23.9594 31.8386L23.8666 30.6452L23.8552 30.4989L23.7666 30.3819L22.5604 28.7906L22.5441 28.7691L22.5255 28.7494L20.9482 27.0786L20.7218 26.8387L20.4122 26.9525L19.7627 27.1912Z" fill="#981616" stroke="#981616"/>
<mask id="path-2-outside-1_11_14" maskUnits="userSpaceOnUse" x="0" y="-1" width="41" height="65" fill="black">
<rect fill="white" y="-1" width="41" height="65"/>
<path fill-rule="evenodd" clip-rule="evenodd" d="M17.8258 1.36945L21.9187 1L23.3325 1.24248L30.4258 14.8054L30.3404 16.7841L32.1354 18.0302L35.8144 24.9061L39.0669 29.9102L38.7521 32.7893L35.6302 37.4946L31.9166 44.7396L28.3383 49.9324L27.7936 52.1903L23.525 61.4246L18.045 62L17.3122 60.8689L16.2807 58.5362L16.2725 58.5184L11.3726 48.3713L7.48679 41.6275L7.48127 41.618L2 31.2447L2.33788 29.6029L5.35437 24.5912L5.35868 24.5839L8.46985 19.2479L9.08216 19.3229L10.5276 15.8797L15.1683 7.443L16.3635 4.68366L16.3651 4.68003L17.8258 1.36945ZM15.8531 7.69002L11.214 16.1238L9.54397 20.102V20.0224L8.89449 19.9429L6.01824 24.8758L3.04923 29.8088L2.77087 31.1614L8.15224 41.3456L12.0491 48.1085L16.9665 58.2927L17.9871 60.6L18.451 61.3161L22.9974 60.8387L27.0798 52.0071L27.6365 49.6998L31.255 44.4486L34.9662 37.2082L38.028 32.5935L38.3064 30.0475L35.1518 25.1941L31.5333 18.4312L29.5849 17.0786L29.6776 14.9303L22.8118 1.80229L21.884 1.64316L18.3583 1.96142L17.0593 4.90528L15.8531 7.69002ZM15.1961 44.6764L19.8669 53.7286L20.765 55.3142L23.0858 51.1472L26.5184 46.2942L29.1851 41.484L33.1679 33.3031L33.1837 33.3058L33.6209 31.8686L32.8999 30.632L28.9073 22.5104L21.8861 9.83474L20.9593 8.64266L20.1754 7.24653L19.8347 7.49001L18.1638 10.8083L16.19 12.8855L16.0169 13.9989L9.48924 25.8341L7.74199 30.1043L13.451 41.5539L13.3652 42.6578L15.1961 44.6764ZM12.6058 42.8573L12.6986 41.6638L6.94606 30.127L8.8017 25.5919L15.2964 13.8164L15.482 12.623L17.5232 10.4748L19.2861 6.97394V7.05351L20.3994 6.25787V6.1783L21.6056 8.32653L22.5335 9.51999L29.5849 22.2502L33.5745 30.3657L34.4095 31.7979L33.8528 33.6279V33.5483L29.8632 41.7434L27.1725 46.5968L23.7396 51.4502L20.7706 56.781L19.1933 53.9962L14.5542 45.0055L12.6058 42.8573ZM20.3994 34.9804L18.8222 33.3096L17.8016 31.8775L17.7088 30.7636L19.1005 29.2518L19.9355 27.6606L20.585 27.4219L22.1623 29.0927L23.3685 30.684L23.4613 31.8775L22.1623 33.0709L20.8634 34.8213L20.3994 34.9804ZM22.7518 33.4622L21.3612 35.3361L20.1669 35.7457L18.2144 33.6774L17.0741 32.0772L16.9479 30.5628L18.4612 28.919L19.3773 27.1732L20.8087 26.6472L22.7636 28.718L24.0962 30.4762L24.2233 32.1102L22.7518 33.4622Z"/>
</mask>
<path fill-rule="evenodd" clip-rule="evenodd" d="M17.8258 1.36945L21.9187 1L23.3325 1.24248L30.4258 14.8054L30.3404 16.7841L32.1354 18.0302L35.8144 24.9061L39.0669 29.9102L38.7521 32.7893L35.6302 37.4946L31.9166 44.7396L28.3383 49.9324L27.7936 52.1903L23.525 61.4246L18.045 62L17.3122 60.8689L16.2807 58.5362L16.2725 58.5184L11.3726 48.3713L7.48679 41.6275L7.48127 41.618L2 31.2447L2.33788 29.6029L5.35437 24.5912L5.35868 24.5839L8.46985 19.2479L9.08216 19.3229L10.5276 15.8797L15.1683 7.443L16.3635 4.68366L16.3651 4.68003L17.8258 1.36945ZM15.8531 7.69002L11.214 16.1238L9.54397 20.102V20.0224L8.89449 19.9429L6.01824 24.8758L3.04923 29.8088L2.77087 31.1614L8.15224 41.3456L12.0491 48.1085L16.9665 58.2927L17.9871 60.6L18.451 61.3161L22.9974 60.8387L27.0798 52.0071L27.6365 49.6998L31.255 44.4486L34.9662 37.2082L38.028 32.5935L38.3064 30.0475L35.1518 25.1941L31.5333 18.4312L29.5849 17.0786L29.6776 14.9303L22.8118 1.80229L21.884 1.64316L18.3583 1.96142L17.0593 4.90528L15.8531 7.69002ZM15.1961 44.6764L19.8669 53.7286L20.765 55.3142L23.0858 51.1472L26.5184 46.2942L29.1851 41.484L33.1679 33.3031L33.1837 33.3058L33.6209 31.8686L32.8999 30.632L28.9073 22.5104L21.8861 9.83474L20.9593 8.64266L20.1754 7.24653L19.8347 7.49001L18.1638 10.8083L16.19 12.8855L16.0169 13.9989L9.48924 25.8341L7.74199 30.1043L13.451 41.5539L13.3652 42.6578L15.1961 44.6764ZM12.6058 42.8573L12.6986 41.6638L6.94606 30.127L8.8017 25.5919L15.2964 13.8164L15.482 12.623L17.5232 10.4748L19.2861 6.97394V7.05351L20.3994 6.25787V6.1783L21.6056 8.32653L22.5335 9.51999L29.5849 22.2502L33.5745 30.3657L34.4095 31.7979L33.8528 33.6279V33.5483L29.8632 41.7434L27.1725 46.5968L23.7396 51.4502L20.7706 56.781L19.1933 53.9962L14.5542 45.0055L12.6058 42.8573ZM20.3994 34.9804L18.8222 33.3096L17.8016 31.8775L17.7088 30.7636L19.1005 29.2518L19.9355 27.6606L20.585 27.4219L22.1623 29.0927L23.3685 30.684L23.4613 31.8775L22.1623 33.0709L20.8634 34.8213L20.3994 34.9804ZM22.7518 33.4622L21.3612 35.3361L20.1669 35.7457L18.2144 33.6774L17.0741 32.0772L16.9479 30.5628L18.4612 28.919L19.3773 27.1732L20.8087 26.6472L22.7636 28.718L24.0962 30.4762L24.2233 32.1102L22.7518 33.4622Z" fill="#981616"/>
<path fill-rule="evenodd" clip-rule="evenodd" d="M17.8258 1.36945L21.9187 1L23.3325 1.24248L30.4258 14.8054L30.3404 16.7841L32.1354 18.0302L35.8144 24.9061L39.0669 29.9102L38.7521 32.7893L35.6302 37.4946L31.9166 44.7396L28.3383 49.9324L27.7936 52.1903L23.525 61.4246L18.045 62L17.3122 60.8689L16.2807 58.5362L16.2725 58.5184L11.3726 48.3713L7.48679 41.6275L7.48127 41.618L2 31.2447L2.33788 29.6029L5.35437 24.5912L5.35868 24.5839L8.46985 19.2479L9.08216 19.3229L10.5276 15.8797L15.1683 7.443L16.3635 4.68366L16.3651 4.68003L17.8258 1.36945ZM15.8531 7.69002L11.214 16.1238L9.54397 20.102V20.0224L8.89449 19.9429L6.01824 24.8758L3.04923 29.8088L2.77087 31.1614L8.15224 41.3456L12.0491 48.1085L16.9665 58.2927L17.9871 60.6L18.451 61.3161L22.9974 60.8387L27.0798 52.0071L27.6365 49.6998L31.255 44.4486L34.9662 37.2082L38.028 32.5935L38.3064 30.0475L35.1518 25.1941L31.5333 18.4312L29.5849 17.0786L29.6776 14.9303L22.8118 1.80229L21.884 1.64316L18.3583 1.96142L17.0593 4.90528L15.8531 7.69002ZM15.1961 44.6764L19.8669 53.7286L20.765 55.3142L23.0858 51.1472L26.5184 46.2942L29.1851 41.484L33.1679 33.3031L33.1837 33.3058L33.6209 31.8686L32.8999 30.632L28.9073 22.5104L21.8861 9.83474L20.9593 8.64266L20.1754 7.24653L19.8347 7.49001L18.1638 10.8083L16.19 12.8855L16.0169 13.9989L9.48924 25.8341L7.74199 30.1043L13.451 41.5539L13.3652 42.6578L15.1961 44.6764ZM12.6058 42.8573L12.6986 41.6638L6.94606 30.127L8.8017 25.5919L15.2964 13.8164L15.482 12.623L17.5232 10.4748L19.2861 6.97394V7.05351L20.3994 6.25787V6.1783L21.6056 8.32653L22.5335 9.51999L29.5849 22.2502L33.5745 30.3657L34.4095 31.7979L33.8528 33.6279V33.5483L29.8632 41.7434L27.1725 46.5968L23.7396 51.4502L20.7706 56.781L19.1933 53.9962L14.5542 45.0055L12.6058 42.8573ZM20.3994 34.9804L18.8222 33.3096L17.8016 31.8775L17.7088 30.7636L19.1005 29.2518L19.9355 27.6606L20.585 27.4219L22.1623 29.0927L23.3685 30.684L23.4613 31.8775L22.1623 33.0709L20.8634 34.8213L20.3994 34.9804ZM22.7518 33.4622L21.3612 35.3361L20.1669 35.7457L18.2144 33.6774L17.0741 32.0772L16.9479 30.5628L18.4612 28.919L19.3773 27.1732L20.8087 26.6472L22.7636 28.718L24.0962 30.4762L24.2233 32.1102L22.7518 33.4622Z" stroke="#981616" stroke-width="2" mask="url(#path-2-outside-1_11_14)"/>
</svg>
